<svg height="71.88mm" viewBox="0 0 169.18 71.88" width="169.18mm" xmlns="http://www.w3.org/2000/svg"><g fill="none" stroke="#899099"><g stroke-width=".3"><path d="m34.156 4.4555h100.7c.62594 0 1.1298.50391 1.1298 1.1298v57.92c0 .62593-.50391 1.1298-1.1298 1.1298h-100.7c-.62593 0-1.1298-.50391-1.1298-1.1298v-57.92c0-.62593.50391-1.1298 1.1298-1.1298z"/><path d="m15.422 40.586h14.525c.62593 0 1.1298.50391 1.1298 1.1298v11.619c0 .62593-.50391 1.1298-1.1298 1.1298h-14.525c-.62593 0-1.1298-.50391-1.1298-1.1298v-11.619c0-.62593.50391-1.1298 1.1298-1.1298z"/><path d="m139.25 40.586h14.525c.62594 0 1.1298.50391 1.1298 1.1298v11.619c0 .62593-.50391 1.1298-1.1298 1.1298h-14.525c-.62593 0-1.1298-.50391-1.1298-1.1298v-11.619c0-.62593.50391-1.1298 1.1298-1.1298z"/><path d="m28.574 10.611h1.8313c.28703 0 .5181.23107.5181.5181v7.1706c0 .30752-.07053.95399-.5181.5181l-1.8313-1.7835c-.16897-.16456-.5181-.47597-.5181-.5181v-5.3871c0-.28703.23107-.5181.5181-.5181z"/><path d="m140.53 10.611h-1.8313c-.28703 0-.5181.23107-.5181.5181v7.1706c0 .30752.0705.95399.5181.5181l1.8313-1.7835c.16897-.16456.5181-.47597.5181-.5181v-5.3871c0-.28703-.23107-.5181-.5181-.5181z"/><path d="m29.888 7.4415a.40553.40553 0 0 1 -.40553.40553.40553.40553 0 0 1 -.40553-.40553.40553.40553 0 0 1 .40553-.40553.40553.40553 0 0 1 .40553.40553z"/></g><path d="m30.987 59.65v-2.2377c0-.35072-.28235-.63308-.63308-.63308h-8.7618c-.37576 0-1.1657.08618-.63308.63308l2.1793 2.2377c.20108.20647.5816.63308.63308.63308h6.5825c.35072 0 .63308-.28235.63308-.63308z" stroke-width=".36657"/><path d="m138.22 59.033v-1.7856c0-.27986.2253-.50516.50515-.50516h6.9915c.29983 0 .93016.06877.50515.50516l-1.739 1.7856c-.16045.16475-.46407.50516-.50515.50516h-5.2525c-.27985 0-.50515-.2253-.50515-.50516z" stroke-width=".29251"/><path d="m150.41 57.247v1.7856c0 .27986-.2253.50516-.50515.50516h-3.3955c-.29983 0-.93016-.06877-.50515-.50516l1.739-1.7856c.16045-.16475.46407-.50516.50515-.50516h1.6565c.27985 0 .50515.2253.50515.50516z" stroke-width=".29251"/><g stroke-width=".3"><path d="m140.22 7.4415a.56774.56774 0 0 1 -.56774.56774.56774.56774 0 0 1 -.56775-.56774.56774.56774 0 0 1 .56775-.56774.56774.56774 0 0 1 .56774.56774z"/><path d="m141.33 7.4415a1.6785 1.6356 0 0 1 -1.6785 1.6356 1.6785 1.6356 0 0 1 -1.6785-1.6356 1.6785 1.6356 0 0 1 1.6785-1.6356 1.6785 1.6356 0 0 1 1.6785 1.6356z"/><path d="m158.09 10.461a2.5278 2.5278 0 0 1 -2.5278 2.5278 2.5278 2.5278 0 0 1 -2.5278-2.5278 2.5278 2.5278 0 0 1 2.5278-2.5278 2.5278 2.5278 0 0 1 2.5278 2.5278z"/><path d="m152.32 16.286a2.5278 2.5278 0 0 1 -2.5278 2.5278 2.5278 2.5278 0 0 1 -2.5278-2.5278 2.5278 2.5278 0 0 1 2.5278-2.5278 2.5278 2.5278 0 0 1 2.5278 2.5278z"/><path d="m163.94 16.286a2.5278 2.5278 0 0 1 -2.5278 2.5278 2.5278 2.5278 0 0 1 -2.5278-2.5278 2.5278 2.5278 0 0 1 2.5278-2.5278 2.5278 2.5278 0 0 1 2.5278 2.5278z"/><path d="m158.09 22.103a2.5278 2.5278 0 0 1 -2.5278 2.5278 2.5278 2.5278 0 0 1 -2.5278-2.5278 2.5278 2.5278 0 0 1 2.5278-2.5278 2.5278 2.5278 0 0 1 2.5278 2.5278z"/><path d="m149.09 30.895a3.1767 3.1767 0 0 1 -3.1767 3.1767 3.1767 3.1767 0 0 1 -3.1766-3.1767 3.1767 3.1767 0 0 1 3.1766-3.1767 3.1767 3.1767 0 0 1 3.1767 3.1767z"/><path d="m149.65 30.895a3.7444 3.7444 0 0 1 -3.7444 3.7444 3.7444 3.7444 0 0 1 -3.7444-3.7444 3.7444 3.7444 0 0 1 3.7444-3.7444 3.7444 3.7444 0 0 1 3.7444 3.7444z"/><path d="m150.95 30.895a5.0421 5.0421 0 0 1 -5.0421 5.0421 5.0421 5.0421 0 0 1 -5.0421-5.0421 5.0421 5.0421 0 0 1 5.0421-5.0421 5.0421 5.0421 0 0 1 5.0421 5.0421z"/><path d="m151.49 30.895a5.5828 5.5828 0 0 1 -5.5828 5.5828 5.5828 5.5828 0 0 1 -5.5828-5.5828 5.5828 5.5828 0 0 1 5.5828-5.5828 5.5828 5.5828 0 0 1 5.5828 5.5828z"/><path d="m152.02 30.895a6.114 6.114 0 0 1 -6.114 6.114 6.114 6.114 0 0 1 -6.114-6.114 6.114 6.114 0 0 1 6.114-6.114 6.114 6.114 0 0 1 6.114 6.114z"/><path d="m153.62 30.895a7.7091 7.7091 0 0 1 -7.7091 7.7091 7.7091 7.7091 0 0 1 -7.7091-7.7091 7.7091 7.7091 0 0 1 7.7091-7.7091 7.7091 7.7091 0 0 1 7.7091 7.7091z"/><path d="m145.87 23.19h.00003c.11622 0 .20979.09357.20979.2098v1.1703c0 .11623-.0936.2098-.20979.2098h-.00003c-.11622 0-.20979-.09357-.20979-.2098v-1.1703c0-.11623.0936-.2098.20979-.2098z"/><path d="m145.87 37.01h.00003c.11622 0 .20979.09357.20979.2098v1.1703c0 .11623-.0936.2098-.20979.2098h-.00003c-.11622 0-.20979-.09357-.20979-.2098v-1.1703c0-.11623.0936-.2098.20979-.2098z"/><path d="m140.47 25.429.00002-.000016c.0822-.08218.21453-.08216.2967.000002l.82754.82754c.0822.08219.0822.21452 0 .2967l-.00001.000015c-.0822.08219-.21454.08216-.2967-.000001l-.82754-.82754c-.0822-.08219-.0822-.21452-.00001-.2967z"/><path d="m140.41 36.292-.00001-.000014c-.0822-.08219-.0822-.21452-.00001-.2967l.82754-.82754c.0822-.08219.21454-.08216.29671.000001l.00001.000015c.0822.08219.0822.21452 0 .2967l-.82754.82754c-.0822.08219-.21453.08217-.2967-.000001z"/><path d="m151.37 36.33-.00002.000016c-.0822.08219-.21453.08216-.2967-.000002l-.82754-.82754c-.0822-.08219-.0822-.21452 0-.2967l.00001-.000016c.0822-.08219.21454-.08216.2967.000001l.82754.82754c.0822.08219.0822.21452.00001.2967z"/><path d="m153.62 30.828v.000022c0 .11623-.0936.2098-.2098.2098h-1.1703c-.11623 0-.2098-.09357-.2098-.2098v-.000022c0-.11623.0936-.2098.2098-.2098h1.1703c.11623 0 .2098.09357.2098.2098z"/><path d="m151.31 25.392.00001.000015c.0822.08219.0822.21452 0 .2967l-.82754.82754c-.0822.08219-.21453.08216-.2967-.000001l-.00001-.000014c-.0822-.08219-.0822-.21452 0-.2967l.82754-.82754c.0822-.08219.21453-.08216.2967.000001z"/><path d="m138.21 30.828v-.000022c0-.11623.0936-.2098.2098-.2098h1.1703c.11623 0 .2098.09357.2098.2098v.000022c0 .11623-.0936.2098-.2098.2098h-1.1703c-.11623 0-.2098-.09357-.2098-.2098z"/><path d="m26.435 30.895a3.1767 3.1767 0 0 1 -3.1767 3.1767 3.1767 3.1767 0 0 1 -3.1766-3.1767 3.1767 3.1767 0 0 1 3.1766-3.1767 3.1767 3.1767 0 0 1 3.1767 3.1767z"/><path d="m27.003 30.895a3.7444 3.7444 0 0 1 -3.7444 3.7444 3.7444 3.7444 0 0 1 -3.7444-3.7444 3.7444 3.7444 0 0 1 3.7444-3.7444 3.7444 3.7444 0 0 1 3.7444 3.7444z"/><path d="m28.301 30.895a5.0421 5.0421 0 0 1 -5.0421 5.0421 5.0421 5.0421 0 0 1 -5.0421-5.0421 5.0421 5.0421 0 0 1 5.0421-5.0421 5.0421 5.0421 0 0 1 5.0421 5.0421z"/><path d="m28.841 30.895a5.5828 5.5828 0 0 1 -5.5828 5.5828 5.5828 5.5828 0 0 1 -5.5828-5.5828 5.5828 5.5828 0 0 1 5.5828-5.5828 5.5828 5.5828 0 0 1 5.5828 5.5828z"/><path d="m29.373 30.895a6.114 6.114 0 0 1 -6.114 6.114 6.114 6.114 0 0 1 -6.114-6.114 6.114 6.114 0 0 1 6.114-6.114 6.114 6.114 0 0 1 6.114 6.114z"/><path d="m30.968 30.895a7.7091 7.7091 0 0 1 -7.7091 7.7091 7.7091 7.7091 0 0 1 -7.7091-7.7091 7.7091 7.7091 0 0 1 7.7091-7.7091 7.7091 7.7091 0 0 1 7.7091 7.7091z"/><path d="m23.22 23.19h.00003c.11622 0 .20979.09357.20979.2098v1.1703c0 .11623-.0936.2098-.20979.2098h-.00003c-.11622 0-.20979-.09357-.20979-.2098v-1.1703c0-.11623.0936-.2098.20979-.2098z"/><path d="m23.22 37.01h.00003c.11622 0 .20979.09357.20979.2098v1.1703c0 .11623-.0936.2098-.20979.2098h-.00003c-.11622 0-.20979-.09357-.20979-.2098v-1.1703c0-.11623.0936-.2098.20979-.2098z"/><path d="m17.821 25.429.000015-.000016c.08219-.08219.21454-.08216.2967.000001l.82754.82754c.08219.08219.08219.21452.000001.2967l-.000015.000016c-.08219.08218-.21454.08216-.2967-.000002l-.82754-.82754c-.08219-.08219-.08219-.21452-.000001-.2967z"/><path d="m17.757 36.292-.000014-.000014c-.08219-.08219-.08219-.21452-.000001-.2967l.82754-.82754c.08219-.08219.21454-.08216.2967.000001l.000014.000014c.08219.08219.08219.21452.000001.2967l-.82754.82754c-.08219.08219-.21454.08216-.2967-.000001z"/><path d="m28.722 36.33-.000016.000016c-.08219.08219-.21454.08216-.2967-.000002l-.82754-.82754c-.08219-.08219-.08219-.21452-.000001-.2967l.000016-.000016c.08218-.08219.21453-.08216.2967.000001l.82754.82754c.08219.08219.08219.21452.000002.2967z"/><path d="m30.964 30.828v.000022c0 .11623-.0936.2098-.2098.2098h-1.1703c-.11623 0-.2098-.09357-.2098-.2098v-.000022c0-.11623.0936-.2098.2098-.2098h1.1703c.11623 0 .2098.09357.2098.2098z"/><path d="m28.657 25.392.000015.000014c.08219.08219.08219.21452.000001.2967l-.82754.82754c-.08219.08218-.21454.08216-.2967-.000002l-.000014-.000014c-.08219-.08219-.08219-.21452-.000001-.2967l.82754-.82754c.08219-.08218.21454-.08216.2967.000002z"/><path d="m15.555 30.828v-.000022c0-.11623.0936-.2098.2098-.2098h1.1703c.11623 0 .2098.09357.2098.2098v.000022c0 .11623-.0936.2098-.2098.2098h-1.1703c-.11623 0-.2098-.09357-.2098-.2098z"/><path d="m15.496 9.4151v4.0832c-.48113.64369-1.2177 1.5531-2.0933 1.7009-.89477-.17712-1.5605-1.038-2.0933-1.7009v-3.9615"/><path d="m13.66 9.8612a.25008.25008 0 0 1 -.25008.25008.25008.25008 0 0 1 -.25008-.25008.25008.25008 0 0 1 .25008-.25008.25008.25008 0 0 1 .25008.25008z"/><path d="m14.465 10.659a.26359.26359 0 0 1 -.26359.2636.26359.26359 0 0 1 -.2636-.2636.26359.26359 0 0 1 .2636-.2636.26359.26359 0 0 1 .26359.2636z"/><path d="m12.877 10.659a.26359.26359 0 0 1 -.2636.2636.26359.26359 0 0 1 -.2636-.2636.26359.26359 0 0 1 .2636-.2636.26359.26359 0 0 1 .2636.2636z"/><path d="m20.142 18.248h-4.0832c-.64369-.48113-1.5531-1.2177-1.7009-2.0933.17712-.89477 1.038-1.5605 1.7009-2.0933h3.9615"/><path d="m19.696 16.412a.25008.25008 0 0 1 -.25008-.25008.25008.25008 0 0 1 .25008-.25008.25008.25008 0 0 1 .25008.25008.25008.25008 0 0 1 -.25008.25008z"/><path d="m18.899 17.217a.26359.26359 0 0 1 -.2636-.26359.26359.26359 0 0 1 .2636-.2636.26359.26359 0 0 1 .2636.2636.26359.26359 0 0 1 -.2636.26359z"/><path d="m18.899 15.629a.26359.26359 0 0 1 -.2636-.2636.26359.26359 0 0 1 .2636-.2636.26359.26359 0 0 1 .2636.2636.26359.26359 0 0 1 -.2636.2636z"/><path d="m11.309 22.895v-4.0832c.48113-.64369 1.2177-1.5531 2.0933-1.7009.89477.17712 1.5605 1.038 2.0933 1.7009v3.9615"/><path d="m13.145 22.448a.25008.25008 0 0 1 .25008-.25008.25008.25008 0 0 1 .25008.25008.25008.25008 0 0 1 -.25008.25008.25008.25008 0 0 1 -.25008-.25008z"/><path d="m12.341 21.651a.26359.26359 0 0 1 .26359-.2636.26359.26359 0 0 1 .2636.2636.26359.26359 0 0 1 -.2636.2636.26359.26359 0 0 1 -.26359-.2636z"/><path d="m13.928 21.651a.26359.26359 0 0 1 .2636-.2636.26359.26359 0 0 1 .2636.2636.26359.26359 0 0 1 -.2636.2636.26359.26359 0 0 1 -.2636-.2636z"/><path d="m6.663 14.062h4.0832c.64369.48113 1.5531 1.2177 1.7009 2.0933-.17712.89477-1.038 1.5605-1.7009 2.0933h-3.9615"/><path d="m7.1091 15.897a.25008.25008 0 0 1 .25008.25008.25008.25008 0 0 1 -.25008.25008.25008.25008 0 0 1 -.25008-.25008.25008.25008 0 0 1 .25008-.25008z"/><path d="m7.9066 15.093a.26359.26359 0 0 1 .2636.26359.26359.26359 0 0 1 -.2636.2636.26359.26359 0 0 1 -.2636-.2636.26359.26359 0 0 1 .2636-.26359z"/><path d="m7.9066 16.681a.26359.26359 0 0 1 .2636.2636.26359.26359 0 0 1 -.2636.2636.26359.26359 0 0 1 -.2636-.2636.26359.26359 0 0 1 .2636-.2636z"/><path d="m7.3896 13.187 3.0469-3.0469c1.6398-1.6398 4.2801-1.6398 5.9199 0l3.0617 3.0617c1.6398 1.6398 1.6398 4.2801 0 5.9199l-3.0469 3.0469c-1.6398 1.6398-4.2801 1.6398-5.9199 0l-3.0617-3.0617c-1.6398-1.6398-1.6398-4.2801.0000001-5.9199z"/></g><path d="m6.8397 12.916 3.3254-3.3254c1.7897-1.7897 4.6714-1.7897 6.4611.0000005l3.3416 3.3416c1.7897 1.7897 1.7897 4.6714 0 6.4611l-3.3254 3.3254c-1.7897 1.7897-4.6714 1.7897-6.4611 0l-3.3416-3.3416c-1.7897-1.7897-1.7897-4.6714-.0000006-6.4611z" stroke-width=".32743"/><path d="m6.0699 12.536 3.7154-3.7154c1.9996-1.9996 5.2192-1.9996 7.2188.0000002l3.7335 3.7335c1.9996 1.9996 1.9996 5.2192 0 7.2188l-3.7154 3.7154c-1.9996 1.9996-5.2192 1.9996-7.2188 0l-3.7335-3.7335c-1.9996-1.9996-1.9996-5.2192-.0000002-7.2188z" stroke-width=".36582"/><g stroke-width=".5"><path d="m31.97 67.811c-4.7126.13278-5.9605.42231-16.063 3.785-11.037-10.196-16.427-20.992-15.569-32.843.43645-9.1762 1.3827-18.403 2.8387-27.682.29174-1.3777.78738-2.3732 1.4869-2.9862 5.3886-2.3233 13.167-5.7821 15.841-6.2557 1.8384-.32574 6.9179-.24376 12.222-.43352h103.72c5.3043.18976 10.384.10777 12.222.43352 2.6733.47368 10.452 3.9325 15.841 6.2557.69956.61307 1.1952 1.6085 1.487 2.9862 1.456 9.2782 2.4023 18.505 2.8387 27.682.85883 11.851-4.5316 22.646-15.569 32.843-10.102-3.3626-11.35-3.6522-16.063-3.785h-52.618z"/><g><path d="m32.727 1.3968c-.18024-.70666-.79304-1.0889-1.8384-1.1467-5.299.06995-7.6009.21125-9.949.35146-5.7225 1.2076-10.819 2.8297-15.604 4.9745-.31112.85004-.39212 1.635-.3884 2.3881"/><path d="m2.0928 18.707 2.296 5.9239.26795 16.147c.40372 8.9275 10.48 18.091 23.333 27.322"/><path d="m136.45 1.3968c.18024-.70666.79304-1.0889 1.8384-1.1467 5.299.06995 7.6008.21125 9.949.35146 5.7225 1.2076 10.819 2.8297 15.604 4.9745.31112.85004.39211 1.635.38839 2.3881"/><path d="m167.08 18.707-2.296 5.9239-.26795 16.147c-.40372 8.9275-10.48 18.091-23.333 27.322"/></g></g></g></svg>